<svg width="20" height="20" viewBox="0 0 20 20" fill="none" xmlns="http://www.w3.org/2000/svg">
<g id="user-robot (1)" clip-path="url(#clip0_45_719)">
<path id="Vector" d="M17.5 19.1667C17.5 19.6275 17.1267 20 16.6667 20C16.2067 20 15.8334 19.6275 15.8334 19.1667C15.8334 17.3283 14.3384 15.8333 12.5 15.8333H7.50002C5.66169 15.8333 4.16669 17.3283 4.16669 19.1667C4.16669 19.6275 3.79335 20 3.33335 20C2.87335 20 2.50002 19.6275 2.50002 19.1667C2.50002 16.4092 4.74252 14.1667 7.50002 14.1667H12.5C15.2575 14.1667 17.5 16.4092 17.5 19.1667ZM18.3334 6.25V7.91667C18.3334 8.60583 17.7725 9.16667 17.0834 9.16667H16.6667C16.6667 11.005 15.1717 12.5 13.3334 12.5H6.66669C4.82835 12.5 3.33335 11.005 3.33335 9.16667H2.91669C2.22752 9.16667 1.66669 8.60583 1.66669 7.91667V6.25C1.66669 5.56083 2.22752 5 2.91669 5H3.33335C3.33335 3.16167 4.82835 1.66667 6.66669 1.66667H9.16669V0.833333C9.16669 0.3725 9.54002 0 10 0C10.46 0 10.8334 0.3725 10.8334 0.833333V1.66667H13.3334C15.1717 1.66667 16.6667 3.16167 16.6667 5H17.0834C17.7725 5 18.3334 5.56083 18.3334 6.25ZM15 5C15 4.08083 14.2525 3.33333 13.3334 3.33333H6.66669C5.74752 3.33333 5.00002 4.08083 5.00002 5V9.16667C5.00002 10.0858 5.74752 10.8333 6.66669 10.8333H13.3334C14.2525 10.8333 15 10.0858 15 9.16667V5ZM7.91669 5.83333C7.22669 5.83333 6.66669 6.39333 6.66669 7.08333C6.66669 7.77333 7.22669 8.33333 7.91669 8.33333C8.60669 8.33333 9.16669 7.77333 9.16669 7.08333C9.16669 6.39333 8.60669 5.83333 7.91669 5.83333ZM12.0834 5.83333C11.3934 5.83333 10.8334 6.39333 10.8334 7.08333C10.8334 7.77333 11.3934 8.33333 12.0834 8.33333C12.7734 8.33333 13.3334 7.77333 13.3334 7.08333C13.3334 6.39333 12.7734 5.83333 12.0834 5.83333Z" fill="white"/>
</g>
<defs>
<clipPath id="clip0_45_719">
<rect width="20" height="20" fill="white"/>
</clipPath>
</defs>
</svg>
